name rise49.25peak52.1432fall72.8391.mot
datacolumns 19
datarows 14
range 13.23994800000000 13.26161700000000
endheader
time	ground_force1_vx	ground_force1_vy	ground_force1_vz	ground_force1_px	ground_force1_py	ground_force1_pz	ground_force2_vx	ground_force2_vy	ground_force2_vz	ground_force2_px	ground_force2_py	ground_force2_pz	ground_torque1_x	ground_torque1_y	ground_torque1_z	ground_torque2_x	ground_torque2_y	ground_torque2_z	
13.23994800000000	-7.61391700000000	41.09910100000000	-9.37155900000000	0.32017600000000	0.00000000000000	0.08948200000000	-47.62334500000000	818.22881800000005	-58.63422500000000	0.11569800000000	0.00000000000000	-0.09244300000000	0.00000000000000	-5.72397200000000	0.00000000000000	0.00000000000000	-20.80750800000000	0.00000000000000	
13.24161800000000	-8.42428900000000	47.85608100000000	-10.55762800000000	0.32460000000000	0.00000000000000	0.09026600000000	-48.59402100000000	816.45693100000005	-58.36135500000000	0.11473700000000	0.00000000000000	-0.09234100000000	0.00000000000000	-6.51315600000000	0.00000000000000	0.00000000000000	-20.81318300000000	0.00000000000000	
13.24328400000000	-9.10996000000000	54.61422000000000	-11.64207000000000	0.32861600000000	0.00000000000000	0.09100600000000	-49.58069200000000	814.55301899999995	-58.06560600000000	0.11377900000000	0.00000000000000	-0.09223700000000	0.00000000000000	-7.25187800000000	0.00000000000000	0.00000000000000	-20.82055100000000	0.00000000000000	
13.24494700000000	-9.65009000000000	61.27940000000000	-12.60000500000000	0.33228000000000	0.00000000000000	0.09170800000000	-50.58254200000000	812.51385000000005	-57.74673300000000	0.11282400000000	0.00000000000000	-0.09213100000000	0.00000000000000	-7.92351400000000	0.00000000000000	0.00000000000000	-20.82954500000000	0.00000000000000	
13.24661200000000	-10.03168000000000	67.78237100000000	-13.41474100000000	0.33563600000000	0.00000000000000	0.09237800000000	-51.59865900000000	810.33616900000004	-57.40451500000000	0.11187300000000	0.00000000000000	-0.09202200000000	0.00000000000000	-8.51637600000000	0.00000000000000	0.00000000000000	-20.84007800000000	0.00000000000000	
13.24828000000000	-10.24953300000000	74.08060399999999	-14.07790300000000	0.33872300000000	0.00000000000000	0.09302000000000	-52.62802700000000	808.01670100000001	-57.03876000000000	0.11092500000000	0.00000000000000	-0.09191100000000	0.00000000000000	-9.02391500000000	0.00000000000000	0.00000000000000	-20.85204400000000	0.00000000000000	
13.24994800000000	-10.30558700000000	80.15765600000000	-14.58887400000000	0.34157200000000	0.00000000000000	0.09363600000000	-53.66953400000000	805.55216399999995	-56.64929900000000	0.10998000000000	0.00000000000000	-0.09179800000000	0.00000000000000	-9.44446900000000	0.00000000000000	0.00000000000000	-20.86532000000000	0.00000000000000	
13.25161200000000	-10.20777700000000	86.02048600000001	-14.95367700000000	0.34421000000000	0.00000000000000	0.09423100000000	-54.72196600000000	802.93927199999996	-56.23599900000000	0.10903900000000	0.00000000000000	-0.09168300000000	0.00000000000000	-9.78064200000000	0.00000000000000	0.00000000000000	-20.87976200000000	0.00000000000000	
13.25327700000000	-9.96860700000000	91.69532000000000	-15.18352400000000	0.34666100000000	0.00000000000000	0.09480500000000	-55.78400900000000	800.17474700000002	-55.79875300000000	0.10810100000000	0.00000000000000	-0.09156600000000	0.00000000000000	-10.03845000000000	0.00000000000000	0.00000000000000	-20.89520700000000	0.00000000000000	
13.25495200000000	-9.60359500000000	97.22264000000000	-15.29318400000000	0.34894500000000	0.00000000000000	0.09536100000000	-56.85425000000000	797.25532499999997	-55.33749100000000	0.10716700000000	0.00000000000000	-0.09144600000000	0.00000000000000	-10.22631600000000	0.00000000000000	0.00000000000000	-20.91147600000000	0.00000000000000	
13.25661200000000	-9.12974100000000	102.65188600000000	-15.29934200000000	0.35107700000000	0.00000000000000	0.09590200000000	-57.93117900000000	794.17776800000001	-54.85217800000000	0.10623700000000	0.00000000000000	-0.09132500000000	0.00000000000000	-10.35406000000000	0.00000000000000	0.00000000000000	-20.92837000000000	0.00000000000000	
13.25828200000000	-8.56414900000000	108.03633700000000	-15.21909100000000	0.35307400000000	0.00000000000000	0.09642700000000	-59.01319000000000	790.93887099999995	-54.34281700000000	0.10531200000000	0.00000000000000	-0.09120100000000	0.00000000000000	-10.43193500000000	0.00000000000000	0.00000000000000	-20.94567100000000	0.00000000000000	
13.25995000000000	-7.92286300000000	113.42855000000000	-15.06865200000000	0.35494800000000	0.00000000000000	0.09693900000000	-60.09858300000000	787.53547500000002	-53.80944800000000	0.10439000000000	0.00000000000000	-0.09107500000000	0.00000000000000	-10.46979900000000	0.00000000000000	0.00000000000000	-20.96314500000000	0.00000000000000	
13.26161700000000	-7.22000500000000	118.87663100000000	-14.86237400000000	0.35671000000000	0.00000000000000	0.09743900000000	-61.18556400000000	783.96447899999998	-53.25215500000000	0.10347300000000	0.00000000000000	-0.09094700000000	0.00000000000000	-10.47646400000000	0.00000000000000	0.00000000000000	-20.98054000000000	0.00000000000000	
